<mxfile host="app.diagrams.net">
    <diagram name="ExpenseTrackerERD" id="expense_tracker">
      <mxGraphModel dx="1000" dy="1000" grid="1" gridSize="10" guides="1" tooltips="1" connect="1" arrows="1" fold="1" page="1" pageScale="1" pageWidth="850" pageHeight="1100">
        <root>
          <mxCell id="0" />
          <mxCell id="1" parent="0" />
  
          <mxCell id="users" value="&lt;b&gt;users&lt;/b&gt;&lt;br/&gt;id (PK)&lt;br/&gt;name&lt;br/&gt;email&lt;br/&gt;password&lt;br/&gt;created_at&lt;br/&gt;updated_at" style="shape=swimlane;whiteSpace=wrap;html=1;" vertex="1" parent="1">
            <mxGeometry x="20" y="20" width="180" height="160" as="geometry" />
          </mxCell>
  
          <mxCell id="categories" value="&lt;b&gt;categories&lt;/b&gt;&lt;br/&gt;id (PK)&lt;br/&gt;user_id (FK)&lt;br/&gt;name&lt;br/&gt;type&lt;br/&gt;created_at&lt;br/&gt;updated_at" style="shape=swimlane;whiteSpace=wrap;html=1;" vertex="1" parent="1">
            <mxGeometry x="250" y="20" width="180" height="180" as="geometry" />
          </mxCell>
  
          <mxCell id="expenses" value="&lt;b&gt;expenses&lt;/b&gt;&lt;br/&gt;id (PK)&lt;br/&gt;user_id (FK)&lt;br/&gt;category_id (FK)&lt;br/&gt;amount&lt;br/&gt;description&lt;br/&gt;expense_date&lt;br/&gt;created_at&lt;br/&gt;updated_at" style="shape=swimlane;whiteSpace=wrap;html=1;" vertex="1" parent="1">
            <mxGeometry x="20" y="240" width="200" height="200" as="geometry" />
          </mxCell>
  
          <mxCell id="recurring_expenses" value="&lt;b&gt;recurring_expenses&lt;/b&gt;&lt;br/&gt;id (PK)&lt;br/&gt;user_id (FK)&lt;br/&gt;category_id (FK)&lt;br/&gt;amount&lt;br/&gt;description&lt;br/&gt;start_date&lt;br/&gt;frequency&lt;br/&gt;interval&lt;br/&gt;next_occurrence&lt;br/&gt;end_date&lt;br/&gt;active&lt;br/&gt;created_at&lt;br/&gt;updated_at" style="shape=swimlane;whiteSpace=wrap;html=1;" vertex="1" parent="1">
            <mxGeometry x="250" y="240" width="220" height="280" as="geometry" />
          </mxCell>
  
          <mxCell id="incomes" value="&lt;b&gt;incomes&lt;/b&gt;&lt;br/&gt;id (PK)&lt;br/&gt;user_id (FK)&lt;br/&gt;category_id (FK)&lt;br/&gt;amount&lt;br/&gt;description&lt;br/&gt;income_date&lt;br/&gt;created_at&lt;br/&gt;updated_at" style="shape=swimlane;whiteSpace=wrap;html=1;" vertex="1" parent="1">
            <mxGeometry x="500" y="20" width="200" height="180" as="geometry" />
          </mxCell>
  
          <mxCell id="recurring_incomes" value="&lt;b&gt;recurring_incomes&lt;/b&gt;&lt;br/&gt;id (PK)&lt;br/&gt;user_id (FK)&lt;br/&gt;category_id (FK)&lt;br/&gt;amount&lt;br/&gt;description&lt;br/&gt;start_date&lt;br/&gt;frequency&lt;br/&gt;interval&lt;br/&gt;next_occurrence&lt;br/&gt;end_date&lt;br/&gt;active&lt;br/&gt;created_at&lt;br/&gt;updated_at" style="shape=swimlane;whiteSpace=wrap;html=1;" vertex="1" parent="1">
            <mxGeometry x="500" y="240" width="220" height="280" as="geometry" />
          </mxCell>
  
        </root>
      </mxGraphModel>
    </diagram>
  </mxfile>
  